<?xml version="1.0" standalone="no"?>
<svg version="1.0" xmlns="http://www.w3.org/2000/svg"
 width="256.000000pt" height="256.000000pt" viewBox="0 0 256.000000 256.000000"
 preserveAspectRatio="xMidYMid meet">

<g transform="translate(0.000000,256.000000) scale(0.100000,-0.100000)"
fill="#000000" stroke="none">
<path d="M1883 2553 l-121 -4 -136 -550 c-75 -303 -136 -555 -136 -561 0 -6
12 -8 33 -3 17 3 185 10 372 13 318 7 343 9 387 29 48 22 78 62 78 104 0 47
-48 103 -212 246 -92 81 -168 151 -168 155 0 5 45 98 100 208 55 109 102 216
106 237 12 81 -41 135 -131 131 -27 -1 -105 -4 -172 -5z"/>
<path d="M1375 2543 c-83 -11 -249 -48 -325 -73 -143 -48 -435 -184 -434 -203
5 -57 210 -1077 217 -1077 5 0 95 38 200 84 106 47 211 90 235 97 23 7 46 17
51 23 5 6 70 261 145 566 75 305 139 563 142 573 5 15 -4 17 -98 16 -57 -1
-116 -4 -133 -6z"/>
<path d="M375 2456 c-66 -16 -89 -30 -120 -71 -34 -43 -55 -114 -55 -179 0
-38 414 -2194 423 -2202 7 -6 216 40 234 52 32 20 43 72 32 148 -6 48 -370
1917 -430 2214 -11 56 -11 56 -84 38z"/>
</g>
</svg>
